<?xml version="1.0" encoding="UTF-8" standalone="no"?>
<!-- Generator: Adobe Illustrator 14.0.0, SVG Export Plug-In . SVG Version: 6.00 Build 43363)  -->

<svg
   xmlns:dc="http://purl.org/dc/elements/1.1/"
   xmlns:cc="http://creativecommons.org/ns#"
   xmlns:rdf="http://www.w3.org/1999/02/22-rdf-syntax-ns#"
   xmlns:svg="http://www.w3.org/2000/svg"
   xmlns="http://www.w3.org/2000/svg"
   xmlns:sodipodi="http://sodipodi.sourceforge.net/DTD/sodipodi-0.dtd"
   xmlns:inkscape="http://www.inkscape.org/namespaces/inkscape"
   version="1.1"
   id="Vrstva_1"
   x="0px"
   y="0px"
   width="32px"
   height="32px"
   viewBox="0 0 32 32"
   enable-background="new 0 0 32 32"
   xml:space="preserve"
   sodipodi:docname="batch_crop.svg"
   inkscape:version="0.92.3 (2405546, 2018-03-11)"><metadata
   id="metadata4534"><rdf:RDF><cc:Work
       rdf:about=""><dc:format>image/svg+xml</dc:format><dc:type
         rdf:resource="http://purl.org/dc/dcmitype/StillImage" /><dc:title></dc:title></cc:Work></rdf:RDF></metadata><defs
   id="defs4532" /><sodipodi:namedview
   pagecolor="#ffffff"
   bordercolor="#666666"
   borderopacity="1"
   objecttolerance="10"
   gridtolerance="10"
   guidetolerance="10"
   inkscape:pageopacity="0"
   inkscape:pageshadow="2"
   inkscape:window-width="1519"
   inkscape:window-height="943"
   id="namedview4530"
   showgrid="false"
   inkscape:zoom="4.6845824"
   inkscape:cx="16"
   inkscape:cy="19.018868"
   inkscape:window-x="252"
   inkscape:window-y="32"
   inkscape:window-maximized="0"
   inkscape:current-layer="Vrstva_1" />
<path
   d="M 20.273538,7.1024973 26.273284,0.81067938 25.26152,-0.25033802 19.261774,6.0414799 H 7.3939406 V 0.78891868 H 5.9628742 V 6.0414799 H 0.95414168 V 7.5422117 H 5.9628742 V 19.98778 l -5.99974602,6.291818 1.011764,1.061017 5.99974602,-6.291817 H 18.842472 v 5.252561 h 1.431066 v -5.252561 h 5.008733 V 19.548066 H 20.273538 Z M 7.3939406,7.5422117 H 17.830708 L 7.3939406,18.487048 Z M 8.4057046,19.548066 18.842472,8.603229 v 10.944837 z"
   id="path4527"
   inkscape:connector-curvature="0"
   style="opacity:0.8;fill:#1a1a1a;stroke-width:0.73274261" />
<path
   d="M 26.580756,12.535921 32.580502,6.2441028 31.568738,5.1830854 25.568992,11.474903 H 13.701158 V 6.2223421 H 12.270092 V 11.474903 H 7.2613595 v 1.500732 h 5.0087325 v 12.445568 l -5.999746,6.291818 1.011764,1.061017 5.999746,-6.291817 H 25.14969 v 5.252561 h 1.431066 v -5.252561 h 5.008733 V 24.981489 H 26.580756 Z M 13.701158,12.975635 H 24.137926 L 13.701158,23.920471 Z M 14.712922,24.981489 25.14969,14.036652 v 10.944837 z"
   id="path4527-9"
   inkscape:connector-curvature="0"
   style="opacity:0.8;fill:#1a1a1a;stroke-width:0.73274261" /></svg>