<?xml version="1.0" encoding="utf-8"?>
<!-- Generator: Adobe Illustrator 14.0.0, SVG Export Plug-In . SVG Version: 6.00 Build 43363)  -->
<!DOCTYPE svg PUBLIC "-//W3C//DTD SVG 1.1//EN" "http://www.w3.org/Graphics/SVG/1.1/DTD/svg11.dtd">
<svg version="1.1" id="Vrstva_1" xmlns="http://www.w3.org/2000/svg" xmlns:xlink="http://www.w3.org/1999/xlink" x="0px" y="0px"
	 width="42px" height="32px" viewBox="0 0 42 32" enable-background="new 0 0 42 32" xml:space="preserve">
<rect x="13" y="1" fill="none" stroke="#E2001A" stroke-width="2" width="28" height="22"/>
<g opacity="0.7">
	<path fill="#010101" d="M9.225,32.001l-2.45-6.321H5.732v6.321H0V14h7.74c1.393,0,3.125,0,4.646,0.976
		c1.54,1.017,2.49,2.865,2.49,4.831c0,1.911-0.969,3.65-2.491,4.605l3.181,7.589H9.225z M7.393,20.934
		c0.504,0,0.896-0.033,1.171-0.193c0.251-0.155,0.439-0.555,0.439-0.958c0-0.284-0.193-0.634-0.431-0.778
		c-0.18-0.113-0.554-0.167-1.125-0.167l-0.756,0.011H5.732v2.082L7.393,20.934z"/>
	<path fill="#010101" d="M21.441,32.232c-2.526,0-4.494-0.965-5.845-2.866c-1.172-1.665-1.817-3.851-1.817-6.155
		c0-4.469,2.369-8.977,7.663-8.977c2.492,0,4.371,0.912,5.748,2.788c1.153,1.58,1.871,3.951,1.871,6.189
		c0,1.703-0.434,4.163-1.646,5.955C26.068,31.145,23.949,32.232,21.441,32.232L21.441,32.232z M21.441,19.203
		c-0.646,0-1.063,0.179-1.42,1.123c-0.321,0.82-0.434,2.064-0.434,2.885c0,4.055,1.396,4.055,1.854,4.055
		c0.65,0,1.064-0.176,1.391-1.1c0.271-0.706,0.42-1.766,0.42-2.932c0-1.332-0.162-2.379-0.482-3.112
		C22.463,19.417,22.152,19.203,21.441,19.203L21.441,19.203z"/>
	<rect x="29" y="14.001" fill="#010101" width="6" height="18"/>
</g>
<g>
	<path fill="#FDFDFD" d="M4.732,31.001H1V15h6.74c1.423,0,2.869,0.024,4.105,0.817c1.307,0.863,2.03,2.425,2.03,3.988
		c0,1.818-1.05,3.498-2.776,4.129L14.061,31H9.91l-2.45-6.32H4.731L4.732,31.001L4.732,31.001z M4.732,21.93h2.052
		c0.77,0,1.609,0.068,2.286-0.328c0.606-0.373,0.933-1.119,0.933-1.819c0-0.63-0.374-1.306-0.91-1.632
		c-0.63-0.396-1.703-0.305-2.402-0.305H4.732V21.93z"/>
	<path fill="#FDFDFD" d="M16.412,28.787c-1.133-1.609-1.632-3.627-1.632-5.576c0-4.125,2.063-7.977,6.664-7.977
		c2.062,0,3.693,0.68,4.939,2.379c1.111,1.52,1.678,3.717,1.678,5.598c0,1.768-0.477,3.921-1.475,5.395
		c-1.201,1.769-3.035,2.629-5.145,2.629C19.335,31.232,17.635,30.509,16.412,28.787z M19.086,19.973
		c-0.363,0.928-0.499,2.264-0.499,3.238c0,1.949,0.294,5.055,2.854,5.055c1.248,0,1.928-0.611,2.334-1.769
		c0.365-0.951,0.477-2.243,0.477-3.263c0-1.135-0.111-2.471-0.566-3.514c-0.453-1.043-1.11-1.519-2.242-1.519
		C20.196,18.203,19.516,18.838,19.086,19.973z"/>
	<path fill="#FDFDFD" d="M34,31.001h-4v-16h4V31.001z"/>
</g>
</svg>
